<svg width="16" height="16" viewBox="0 0 16 16" fill="none" xmlns="http://www.w3.org/2000/svg">
<g id="icon/map-pin-filled">
<path id="Vector" d="M12.2427 3.0907C13.3443 4.19212 13.9743 5.67878 13.9995 7.23631C14.0248 8.79384 13.4433 10.3001 12.378 11.4367L12.2427 11.5767L9.41404 14.4047C9.05512 14.7634 8.57329 14.9722 8.06614 14.989C7.55899 15.0057 7.06445 14.829 6.6827 14.4947L6.5867 14.4047L3.75737 11.576C2.63215 10.4508 2 8.92467 2 7.33337C2 5.74206 2.63215 4.21592 3.75737 3.0907C4.8826 1.96547 6.40873 1.33333 8.00004 1.33333C9.59135 1.33333 11.1175 1.96547 12.2427 3.0907ZM8.00004 5.33337C7.73739 5.33337 7.47732 5.3851 7.23467 5.48561C6.99202 5.58612 6.77154 5.73343 6.58582 5.91915C6.40011 6.10487 6.25279 6.32535 6.15228 6.568C6.05177 6.81065 6.00004 7.07072 6.00004 7.33337C6.00004 7.59601 6.05177 7.85608 6.15228 8.09873C6.25279 8.34138 6.40011 8.56186 6.58582 8.74758C6.77154 8.9333 6.99202 9.08062 7.23467 9.18112C7.47732 9.28163 7.73739 9.33337 8.00004 9.33337C8.53047 9.33337 9.03918 9.12265 9.41425 8.74758C9.78932 8.37251 10 7.8638 10 7.33337C10 6.80293 9.78932 6.29422 9.41425 5.91915C9.03918 5.54408 8.53047 5.33337 8.00004 5.33337Z" fill="#D7D7DC"/>
</g>
</svg>
