<svg width="17" height="16" viewBox="0 0 17 16" fill="none" xmlns="http://www.w3.org/2000/svg">
    <path d="M12.7426 3.09062C13.8442 4.19204 14.4742 5.6787 14.4995 7.23623C14.5247 8.79376 13.9432 10.3001 12.878 11.4366L12.7426 11.5766L9.91398 14.4046C9.55506 14.7633 9.07323 14.9722 8.56608 14.9889C8.05893 15.0056 7.56439 14.8289 7.18264 14.4946L7.08664 14.4046L4.25731 11.576C3.13208 10.4507 2.49994 8.9246 2.49994 7.33329C2.49994 5.74198 3.13208 4.21585 4.25731 3.09062C5.38253 1.9654 6.90867 1.33325 8.49998 1.33325C10.0913 1.33325 11.6174 1.9654 12.7426 3.09062ZM8.49998 5.33329C8.23733 5.33329 7.97726 5.38502 7.73461 5.48553C7.49196 5.58604 7.27148 5.73336 7.08576 5.91908C6.90004 6.10479 6.75273 6.32527 6.65222 6.56792C6.55171 6.81057 6.49998 7.07065 6.49998 7.33329C6.49998 7.59593 6.55171 7.856 6.65222 8.09866C6.75273 8.34131 6.90004 8.56179 7.08576 8.7475C7.27148 8.93322 7.49196 9.08054 7.73461 9.18105C7.97726 9.28156 8.23733 9.33329 8.49998 9.33329C9.03041 9.33329 9.53912 9.12258 9.91419 8.7475C10.2893 8.37243 10.5 7.86372 10.5 7.33329C10.5 6.80286 10.2893 6.29415 9.91419 5.91908C9.53912 5.544 9.03041 5.33329 8.49998 5.33329Z" fill="#D7D7DC"/>
</svg>