<svg width="32" height="30" viewBox="0 0 32 30" fill="none" xmlns="http://www.w3.org/2000/svg">
    <path d="M24.4854 6.18124C26.6885 8.38409 27.9485 11.3574 27.999 14.4725C28.0496 17.5875 26.8866 20.6001 24.7561 22.8732L24.4854 23.1532L18.8281 28.8092C18.1102 29.5266 17.1466 29.9443 16.1323 29.9777C15.118 30.0112 14.1289 29.6578 13.3654 28.9892L13.1734 28.8092L7.51474 23.1519C5.26429 20.9015 4 17.8492 4 14.6666C4 11.484 5.26429 8.43169 7.51474 6.18124C9.76519 3.93079 12.8175 2.6665 16.0001 2.6665C19.1827 2.6665 22.235 3.93079 24.4854 6.18124Z" fill="#D7D7DC"/>
    <path d="M15.8536 19.2197C13.9146 19.2197 12.5244 18.1465 12.4878 16.6099H14.3415C14.378 17.2684 15.0122 17.7075 15.8658 17.7075C16.7439 17.7075 17.378 17.2075 17.3658 16.5001C17.378 15.7806 16.7317 15.2684 15.6951 15.2684H14.878V13.9148H15.6951C16.561 13.9148 17.1707 13.4392 17.1707 12.744C17.1707 12.0733 16.6585 11.6099 15.878 11.6099C15.0975 11.6099 14.4512 12.0489 14.4268 12.7197H12.6707C12.6951 11.1953 14.0732 10.1465 15.878 10.1465C17.7195 10.1465 18.9512 11.2319 18.939 12.6343C18.9512 13.6221 18.2561 14.3294 17.2683 14.5001V14.5733C18.561 14.7319 19.2805 15.5245 19.2683 16.6221C19.2805 18.1343 17.8415 19.2197 15.8536 19.2197Z" fill="white"/>
</svg>