<svg width="32" height="32" viewBox="0 0 32 32" fill="none" xmlns="http://www.w3.org/2000/svg">
    <path d="M24.4854 6.18149C26.6885 8.38433 27.9485 11.3576 27.999 14.4727C28.0496 17.5878 26.8866 20.6004 24.7561 22.8735L24.4854 23.1535L18.8281 28.8095C18.1102 29.5269 17.1466 29.9446 16.1323 29.978C15.118 30.0114 14.1289 29.6581 13.3654 28.9895L13.1734 28.8095L7.51474 23.1522C5.26429 20.9017 4 17.8494 4 14.6668C4 11.4842 5.26429 8.43194 7.51474 6.18149C9.76519 3.93104 12.8175 2.66675 16.0001 2.66675C19.1827 2.66675 22.235 3.93104 24.4854 6.18149Z" fill="#0066FF"/>
    <path d="M17.1829 10.1462V18.9755H15.3415V11.8901H15.2927L13.2683 13.1584V11.5365L15.4512 10.1462H17.1829Z" fill="white"/>
</svg>
