<svg width="32" height="32" viewBox="0 0 32 32" fill="none" xmlns="http://www.w3.org/2000/svg">
    <path d="M24.4854 6.18124C26.6885 8.38409 27.9485 11.3574 27.999 14.4725C28.0496 17.5875 26.8866 20.6001 24.7561 22.8732L24.4854 23.1532L18.8281 28.8092C18.1102 29.5266 17.1466 29.9443 16.1323 29.9777C15.118 30.0112 14.1289 29.6578 13.3654 28.9892L13.1734 28.8092L7.51474 23.1519C5.26429 20.9015 4 17.8492 4 14.6666C4 11.484 5.26429 8.43169 7.51474 6.18124C9.76519 3.93079 12.8175 2.6665 16.0001 2.6665C19.1827 2.6665 22.235 3.93079 24.4854 6.18124Z" fill="#D7D7DC"/>
    <path d="M12.5732 19.0977L12.5611 17.7684L15.7318 14.8538C16.5611 14.0611 17.0001 13.5733 17.0001 12.8782C17.0001 12.0977 16.4025 11.6099 15.5976 11.6099C14.7684 11.6099 14.2318 12.1343 14.2318 12.9758H12.4879C12.4757 11.244 13.7562 10.1465 15.622 10.1465C17.5123 10.1465 18.7684 11.2197 18.7684 12.7562C18.7684 13.7562 18.2806 14.5855 16.4635 16.2319L15.122 17.5367V17.5855H18.8903V19.0977H12.5732Z" fill="white"/>
</svg>
