<svg width="16" height="17" viewBox="0 0 16 17" fill="none" xmlns="http://www.w3.org/2000/svg">
<g id="icon/social">
<g id="Vector">
<path d="M7.11438 5.83334C7.11438 6.54058 7.39533 7.21886 7.89543 7.71896C8.39553 8.21905 9.0738 8.50001 9.78105 8.50001C10.4883 8.50001 11.1666 8.21905 11.6667 7.71896C12.1668 7.21886 12.4477 6.54058 12.4477 5.83334C12.4477 5.12609 12.1668 4.44782 11.6667 3.94772C11.1666 3.44762 10.4883 3.16667 9.78105 3.16667C9.0738 3.16667 8.39553 3.44762 7.89543 3.94772C7.39533 4.44782 7.11438 5.12609 7.11438 5.83334Z" fill="#D7D7DC"/>
<path d="M4.66662 13.5V12.1667C4.66662 11.4594 4.94757 10.7812 5.44766 10.2811C5.94776 9.78096 6.62604 9.50001 7.33328 9.50001H12.4477C13.1549 9.50001 13.8332 9.78096 14.3333 10.2811C14.8334 10.7812 15.1143 11.4594 15.1143 12.1667V13.5" fill="#D7D7DC"/>
<path d="M4.66662 13.5V12.1667C4.66662 11.4594 4.94757 10.7812 5.44766 10.2811C5.94776 9.78096 6.62604 9.50001 7.33328 9.50001H12.4477C13.1549 9.50001 13.8332 9.78096 14.3333 10.2811C14.8334 10.7812 15.1143 11.4594 15.1143 12.1667V13.5M7.11438 5.83334C7.11438 6.54058 7.39533 7.21886 7.89543 7.71896C8.39553 8.21905 9.0738 8.50001 9.78105 8.50001C10.4883 8.50001 11.1666 8.21905 11.6667 7.71896C12.1668 7.21886 12.4477 6.54058 12.4477 5.83334C12.4477 5.12609 12.1668 4.44782 11.6667 3.94772C11.1666 3.44762 10.4883 3.16667 9.78105 3.16667C9.0738 3.16667 8.39553 3.44762 7.89543 3.94772C7.39533 4.44782 7.11438 5.12609 7.11438 5.83334Z" stroke="white" stroke-linecap="round" stroke-linejoin="round"/>
</g>
<g id="Vector_2">
<path d="M3.78113 5.83334C3.78113 6.54058 4.06208 7.21886 4.56218 7.71896C5.06227 8.21905 5.74055 8.50001 6.44779 8.50001C7.15504 8.50001 7.83331 8.21905 8.33341 7.71896C8.83351 7.21886 9.11446 6.54058 9.11446 5.83334C9.11446 5.12609 8.83351 4.44782 8.33341 3.94772C7.83331 3.44762 7.15504 3.16667 6.44779 3.16667C5.74055 3.16667 5.06227 3.44762 4.56218 3.94772C4.06208 4.44782 3.78113 5.12609 3.78113 5.83334Z" fill="#D7D7DC"/>
<path d="M1.33336 13.5V12.1667C1.33336 11.4594 1.61432 10.7812 2.11441 10.2811C2.61451 9.78096 3.29279 9.50001 4.00003 9.50001H9.11442C9.82166 9.50001 10.4999 9.78096 11 10.2811C11.5001 10.7812 11.7811 11.4594 11.7811 12.1667V13.5" fill="#D7D7DC"/>
<path d="M1.33336 13.5V12.1667C1.33336 11.4594 1.61432 10.7812 2.11441 10.2811C2.61451 9.78096 3.29279 9.50001 4.00003 9.50001H9.11442C9.82166 9.50001 10.4999 9.78096 11 10.2811C11.5001 10.7812 11.7811 11.4594 11.7811 12.1667V13.5M3.78113 5.83334C3.78113 6.54058 4.06208 7.21886 4.56218 7.71896C5.06227 8.21905 5.74055 8.50001 6.44779 8.50001C7.15504 8.50001 7.83331 8.21905 8.33341 7.71896C8.83351 7.21886 9.11446 6.54058 9.11446 5.83334C9.11446 5.12609 8.83351 4.44782 8.33341 3.94772C7.83331 3.44762 7.15504 3.16667 6.44779 3.16667C5.74055 3.16667 5.06227 3.44762 4.56218 3.94772C4.06208 4.44782 3.78113 5.12609 3.78113 5.83334Z" stroke="white" stroke-linecap="round" stroke-linejoin="round"/>
</g>
</g>
</svg>
