<?xml version="1.0" encoding="UTF-8"?>
<svg id="_레이어_2" data-name="레이어 2" xmlns="http://www.w3.org/2000/svg" xmlns:xlink="http://www.w3.org/1999/xlink" viewBox="0 0 226.77 226.77">
  <defs>
    <style>
      .cls-1 {
        fill: #815e26;
      }

      .cls-2, .cls-3 {
        fill: none;
      }

      .cls-2, .cls-4 {
        stroke: #815e26;
        stroke-miterlimit: 10;
        stroke-width: 6px;
      }

      .cls-5 {
        fill: #f7c6c5;
      }

      .cls-6 {
        clip-path: url(#clippath-1);
      }

      .cls-4 {
        fill: #f9f1d6;
      }

      .cls-7 {
        fill: #edc061;
      }

      .cls-8 {
        clip-path: url(#clippath);
      }

      .cls-9 {
        fill: #2e4da0;
      }
    </style>
    <clipPath id="clippath">
      <rect class="cls-3" width="226.77" height="226.77"/>
    </clipPath>
    <clipPath id="clippath-1">
      <path class="cls-3" d="M-119.16,207.44S-101.36,71.63,52.25,49.22c153.61-22.41,179.98,110.1,179.98,110.1,0,0,36.26,19.12,15.82,58.01S-14.87,283.3-78.29,262.16c-47.47-15.82-42.19-38.4-40.87-54.72Z"/>
    </clipPath>
  </defs>
  <g id="_레이어_1-2" data-name="레이어 1">
    <g>
      <rect class="cls-9" width="226.77" height="226.77"/>
      <g class="cls-8">
        <g>
          <path class="cls-4" d="M-119.16,207.44S-101.36,71.63,52.25,49.22c153.61-22.41,179.98,110.1,179.98,110.1,0,0,36.26,19.12,15.82,58.01S-14.87,283.3-78.29,262.16c-47.47-15.82-42.19-38.4-40.87-54.72Z"/>
          <g>
            <ellipse class="cls-1" cx="72.7" cy="167.66" rx="9" ry="14.1"/>
            <ellipse class="cls-1" cx="171.21" cy="146.56" rx="7.31" ry="12.54"/>
            <g>
              <path class="cls-7" d="M129.43,156.75c-3.05-.71-6.36,0-8.99,1.69s-4.6,4.34-5.69,7.28c-.53,1.43-.87,2.98-.62,4.49.33,2.04,1.73,3.81,3.47,4.92s3.8,1.64,5.85,1.87c7.26.81,14.84-2.06,19.74-7.48.83-.91,1.59-1.92,1.99-3.09,1.08-3.16-.91-6.74-3.78-8.45s-6.36-1.95-9.7-1.9c-1.99.03-3.97.16-5.94.38"/>
              <path class="cls-1" d="M129.83,155.31c-6.55-1.38-12.89,2.33-15.76,8.22-1.4,2.87-2.16,6.17-.68,9.16,1.39,2.82,4.26,4.56,7.22,5.32,5.96,1.53,12.61.27,17.89-2.79,2.68-1.55,5.26-3.66,7.03-6.21s1.84-5.68.38-8.41c-3.77-7.04-13.45-6.33-20.15-5.63-1.9.2-1.92,3.2,0,3,2.94-.31,5.93-.51,8.89-.32,2.5.16,5.24.73,7.14,2.49,1.53,1.41,2.67,3.64,2.01,5.74-.71,2.23-3.02,4.15-4.85,5.48-4.02,2.92-8.97,4.47-13.93,4.27-2.49-.1-5.24-.59-7.24-2.19-2.13-1.71-2.6-4.1-1.8-6.65,1.73-5.48,7.14-9.82,13.06-8.57,1.88.4,2.69-2.49.8-2.89h0Z"/>
            </g>
          </g>
          <ellipse class="cls-5" cx="13.37" cy="197.33" rx="47.43" ry="29.67"/>
          <g class="cls-6">
            <ellipse class="cls-5" cx="238.58" cy="163.9" rx="47.43" ry="29.67"/>
          </g>
          <path class="cls-2" d="M-119.16,207.44S-101.36,71.63,52.25,49.22c153.61-22.41,179.98,110.1,179.98,110.1,0,0,36.26,19.12,15.82,58.01S-14.87,283.3-78.29,262.16c-47.47-15.82-42.19-38.4-40.87-54.72Z"/>
        </g>
      </g>
    </g>
  </g>
</svg>